<mxfile host="app.diagrams.net" modified="2024-07-13T07:21:57.857Z" agent="Mozilla/5.0 (Windows NT 10.0; Win64; x64) AppleWebKit/537.36 (KHTML, like Gecko) Chrome/126.0.0.0 Safari/537.36 Edg/126.0.0.0" etag="WiBLxr0lLrFe9fe1Sek9" version="24.6.5" type="github" pages="2">
  <diagram name="JWT" id="ah4SJIywvmuBuQ8qikBH">
    <mxGraphModel dx="1143" dy="655" grid="1" gridSize="10" guides="1" tooltips="1" connect="1" arrows="1" fold="1" page="1" pageScale="1" pageWidth="850" pageHeight="1100" math="0" shadow="0">
      <root>
        <mxCell id="0" />
        <mxCell id="1" parent="0" />
        <mxCell id="Bqz1jouhfoB8hAcjnaTv-2" style="edgeStyle=orthogonalEdgeStyle;rounded=0;orthogonalLoop=1;jettySize=auto;html=1;exitX=0.5;exitY=0.5;exitDx=0;exitDy=0;exitPerimeter=0;" edge="1" parent="1" source="Bqz1jouhfoB8hAcjnaTv-1">
          <mxGeometry relative="1" as="geometry">
            <mxPoint x="210" y="260" as="targetPoint" />
          </mxGeometry>
        </mxCell>
        <mxCell id="Bqz1jouhfoB8hAcjnaTv-1" value="User" style="shape=umlActor;verticalLabelPosition=bottom;verticalAlign=top;html=1;outlineConnect=0;" vertex="1" parent="1">
          <mxGeometry x="120" y="230" width="30" height="60" as="geometry" />
        </mxCell>
        <mxCell id="Bqz1jouhfoB8hAcjnaTv-4" style="edgeStyle=orthogonalEdgeStyle;rounded=0;orthogonalLoop=1;jettySize=auto;html=1;exitX=1;exitY=0.25;exitDx=0;exitDy=0;entryX=0;entryY=0.25;entryDx=0;entryDy=0;" edge="1" parent="1" source="Bqz1jouhfoB8hAcjnaTv-3" target="Bqz1jouhfoB8hAcjnaTv-5">
          <mxGeometry relative="1" as="geometry">
            <mxPoint x="430" y="245" as="targetPoint" />
          </mxGeometry>
        </mxCell>
        <mxCell id="Bqz1jouhfoB8hAcjnaTv-14" style="edgeStyle=orthogonalEdgeStyle;rounded=0;orthogonalLoop=1;jettySize=auto;html=1;exitX=0.5;exitY=1;exitDx=0;exitDy=0;entryX=0.25;entryY=1;entryDx=0;entryDy=0;" edge="1" parent="1" source="Bqz1jouhfoB8hAcjnaTv-3" target="Bqz1jouhfoB8hAcjnaTv-5">
          <mxGeometry relative="1" as="geometry">
            <Array as="points">
              <mxPoint x="255" y="350" />
              <mxPoint x="503" y="350" />
            </Array>
          </mxGeometry>
        </mxCell>
        <mxCell id="Bqz1jouhfoB8hAcjnaTv-3" value="Frontend Application" style="rounded=0;whiteSpace=wrap;html=1;" vertex="1" parent="1">
          <mxGeometry x="210" y="230" width="90" height="60" as="geometry" />
        </mxCell>
        <mxCell id="Bqz1jouhfoB8hAcjnaTv-6" style="edgeStyle=orthogonalEdgeStyle;rounded=0;orthogonalLoop=1;jettySize=auto;html=1;exitX=0;exitY=0.5;exitDx=0;exitDy=0;entryX=1;entryY=0.5;entryDx=0;entryDy=0;" edge="1" parent="1" source="Bqz1jouhfoB8hAcjnaTv-5" target="Bqz1jouhfoB8hAcjnaTv-3">
          <mxGeometry relative="1" as="geometry" />
        </mxCell>
        <mxCell id="Bqz1jouhfoB8hAcjnaTv-20" style="edgeStyle=orthogonalEdgeStyle;rounded=0;orthogonalLoop=1;jettySize=auto;html=1;exitX=0.5;exitY=1;exitDx=0;exitDy=0;entryX=0.25;entryY=1;entryDx=0;entryDy=0;" edge="1" parent="1" source="Bqz1jouhfoB8hAcjnaTv-5" target="Bqz1jouhfoB8hAcjnaTv-3">
          <mxGeometry relative="1" as="geometry">
            <Array as="points">
              <mxPoint x="525" y="370" />
              <mxPoint x="233" y="370" />
            </Array>
          </mxGeometry>
        </mxCell>
        <mxCell id="Bqz1jouhfoB8hAcjnaTv-5" value="Backend&lt;div&gt;Application&lt;/div&gt;" style="rounded=0;whiteSpace=wrap;html=1;" vertex="1" parent="1">
          <mxGeometry x="480" y="230" width="90" height="60" as="geometry" />
        </mxCell>
        <mxCell id="Bqz1jouhfoB8hAcjnaTv-7" value="1. Login request" style="text;html=1;align=center;verticalAlign=middle;resizable=0;points=[];autosize=1;strokeColor=none;fillColor=none;fontStyle=1" vertex="1" parent="1">
          <mxGeometry x="335" y="220" width="110" height="30" as="geometry" />
        </mxCell>
        <mxCell id="Bqz1jouhfoB8hAcjnaTv-10" value="3. Returns JWT token" style="text;html=1;align=center;verticalAlign=middle;resizable=0;points=[];autosize=1;strokeColor=none;fillColor=none;fontStyle=1" vertex="1" parent="1">
          <mxGeometry x="320" y="260" width="140" height="30" as="geometry" />
        </mxCell>
        <mxCell id="Bqz1jouhfoB8hAcjnaTv-11" style="edgeStyle=orthogonalEdgeStyle;rounded=0;orthogonalLoop=1;jettySize=auto;html=1;exitX=0.5;exitY=0;exitDx=0;exitDy=0;entryX=1;entryY=0.25;entryDx=0;entryDy=0;" edge="1" parent="1" source="Bqz1jouhfoB8hAcjnaTv-5" target="Bqz1jouhfoB8hAcjnaTv-5">
          <mxGeometry relative="1" as="geometry" />
        </mxCell>
        <mxCell id="Bqz1jouhfoB8hAcjnaTv-13" value="2. Verify credentials&amp;nbsp;&lt;div&gt;and generate JWT token&lt;/div&gt;" style="text;html=1;align=center;verticalAlign=middle;resizable=0;points=[];autosize=1;strokeColor=none;fillColor=none;fontStyle=1" vertex="1" parent="1">
          <mxGeometry x="480" y="170" width="150" height="40" as="geometry" />
        </mxCell>
        <mxCell id="Bqz1jouhfoB8hAcjnaTv-15" value="4. Further requests with JWT token" style="text;html=1;align=center;verticalAlign=middle;resizable=0;points=[];autosize=1;strokeColor=none;fillColor=none;fontStyle=1" vertex="1" parent="1">
          <mxGeometry x="270" y="320" width="210" height="30" as="geometry" />
        </mxCell>
        <mxCell id="Bqz1jouhfoB8hAcjnaTv-16" style="edgeStyle=orthogonalEdgeStyle;rounded=0;orthogonalLoop=1;jettySize=auto;html=1;exitX=1;exitY=0.75;exitDx=0;exitDy=0;entryX=0.75;entryY=1;entryDx=0;entryDy=0;" edge="1" parent="1" source="Bqz1jouhfoB8hAcjnaTv-5" target="Bqz1jouhfoB8hAcjnaTv-5">
          <mxGeometry relative="1" as="geometry">
            <Array as="points">
              <mxPoint x="620" y="275" />
              <mxPoint x="620" y="310" />
              <mxPoint x="548" y="310" />
            </Array>
          </mxGeometry>
        </mxCell>
        <mxCell id="Bqz1jouhfoB8hAcjnaTv-17" value="5. Verify token integrity" style="text;html=1;align=center;verticalAlign=middle;resizable=0;points=[];autosize=1;strokeColor=none;fillColor=none;fontStyle=1" vertex="1" parent="1">
          <mxGeometry x="620" y="280" width="140" height="30" as="geometry" />
        </mxCell>
        <mxCell id="Bqz1jouhfoB8hAcjnaTv-22" value="6. Response" style="text;html=1;align=center;verticalAlign=middle;resizable=0;points=[];autosize=1;strokeColor=none;fillColor=none;fontStyle=1" vertex="1" parent="1">
          <mxGeometry x="330" y="370" width="90" height="30" as="geometry" />
        </mxCell>
      </root>
    </mxGraphModel>
  </diagram>
  <diagram id="XwCqSwUtUlto9p84yURi" name="Socket vs HTTP">
    <mxGraphModel dx="1143" dy="655" grid="1" gridSize="10" guides="1" tooltips="1" connect="1" arrows="1" fold="1" page="1" pageScale="1" pageWidth="850" pageHeight="1100" math="0" shadow="0">
      <root>
        <mxCell id="0" />
        <mxCell id="1" parent="0" />
        <mxCell id="S61VdMvBfNB-LoWoOVVo-2" value="" style="shape=actor;whiteSpace=wrap;html=1;" vertex="1" parent="1">
          <mxGeometry x="80" y="110" width="40" height="60" as="geometry" />
        </mxCell>
        <mxCell id="S61VdMvBfNB-LoWoOVVo-5" value="" style="line;strokeWidth=4;direction=south;html=1;perimeter=backbonePerimeter;points=[];outlineConnect=0;" vertex="1" parent="1">
          <mxGeometry x="95" y="180" width="10" height="230" as="geometry" />
        </mxCell>
        <mxCell id="S61VdMvBfNB-LoWoOVVo-6" value="" style="line;strokeWidth=4;direction=south;html=1;perimeter=backbonePerimeter;points=[];outlineConnect=0;" vertex="1" parent="1">
          <mxGeometry x="335" y="180" width="10" height="230" as="geometry" />
        </mxCell>
        <mxCell id="S61VdMvBfNB-LoWoOVVo-7" value="" style="shape=image;verticalLabelPosition=bottom;labelBackgroundColor=default;verticalAlign=top;aspect=fixed;imageAspect=0;image=https://static.vecteezy.com/system/resources/previews/021/351/649/original/web-server-icon-for-your-website-mobile-presentation-and-logo-design-free-vector.jpg;" vertex="1" parent="1">
          <mxGeometry x="305" y="105" width="70" height="70" as="geometry" />
        </mxCell>
        <mxCell id="S61VdMvBfNB-LoWoOVVo-8" value="HTTP" style="text;strokeColor=none;fillColor=none;html=1;fontSize=24;fontStyle=1;verticalAlign=middle;align=center;" vertex="1" parent="1">
          <mxGeometry x="170" y="120" width="100" height="40" as="geometry" />
        </mxCell>
        <mxCell id="S61VdMvBfNB-LoWoOVVo-9" value="" style="endArrow=classic;html=1;rounded=0;" edge="1" parent="1" source="S61VdMvBfNB-LoWoOVVo-5" target="S61VdMvBfNB-LoWoOVVo-6">
          <mxGeometry width="50" height="50" relative="1" as="geometry">
            <mxPoint x="150" y="240" as="sourcePoint" />
            <mxPoint x="200" y="190" as="targetPoint" />
            <Array as="points">
              <mxPoint x="190" y="200" />
            </Array>
          </mxGeometry>
        </mxCell>
        <mxCell id="S61VdMvBfNB-LoWoOVVo-10" value="1. Request (poll)" style="text;html=1;align=center;verticalAlign=middle;resizable=0;points=[];autosize=1;strokeColor=none;fillColor=none;fontStyle=1" vertex="1" parent="1">
          <mxGeometry x="165" y="170" width="110" height="30" as="geometry" />
        </mxCell>
        <mxCell id="S61VdMvBfNB-LoWoOVVo-12" value="" style="endArrow=none;html=1;rounded=0;endFill=0;startArrow=classic;startFill=1;" edge="1" parent="1" target="S61VdMvBfNB-LoWoOVVo-6">
          <mxGeometry width="50" height="50" relative="1" as="geometry">
            <mxPoint x="100" y="240" as="sourcePoint" />
            <mxPoint x="335" y="240" as="targetPoint" />
            <Array as="points">
              <mxPoint x="184" y="240" />
            </Array>
          </mxGeometry>
        </mxCell>
        <mxCell id="S61VdMvBfNB-LoWoOVVo-13" value="2. Response" style="text;html=1;align=center;verticalAlign=middle;resizable=0;points=[];autosize=1;strokeColor=none;fillColor=none;fontStyle=1" vertex="1" parent="1">
          <mxGeometry x="175" y="210" width="90" height="30" as="geometry" />
        </mxCell>
        <mxCell id="S61VdMvBfNB-LoWoOVVo-15" value="" style="endArrow=classic;html=1;rounded=0;" edge="1" parent="1" target="S61VdMvBfNB-LoWoOVVo-6">
          <mxGeometry width="50" height="50" relative="1" as="geometry">
            <mxPoint x="98" y="280" as="sourcePoint" />
            <mxPoint x="335" y="280" as="targetPoint" />
            <Array as="points">
              <mxPoint x="187" y="280" />
            </Array>
          </mxGeometry>
        </mxCell>
        <mxCell id="S61VdMvBfNB-LoWoOVVo-16" value="3. Request" style="text;html=1;align=center;verticalAlign=middle;resizable=0;points=[];autosize=1;strokeColor=none;fillColor=none;fontStyle=1" vertex="1" parent="1">
          <mxGeometry x="180" y="250" width="80" height="30" as="geometry" />
        </mxCell>
        <mxCell id="S61VdMvBfNB-LoWoOVVo-17" value="" style="endArrow=none;html=1;rounded=0;endFill=0;startArrow=classic;startFill=1;" edge="1" parent="1" target="S61VdMvBfNB-LoWoOVVo-6">
          <mxGeometry width="50" height="50" relative="1" as="geometry">
            <mxPoint x="100" y="320" as="sourcePoint" />
            <mxPoint x="335" y="320" as="targetPoint" />
            <Array as="points">
              <mxPoint x="181" y="320" />
            </Array>
          </mxGeometry>
        </mxCell>
        <mxCell id="S61VdMvBfNB-LoWoOVVo-18" value="4. Response" style="text;html=1;align=center;verticalAlign=middle;resizable=0;points=[];autosize=1;strokeColor=none;fillColor=none;fontStyle=1" vertex="1" parent="1">
          <mxGeometry x="175" y="290" width="90" height="30" as="geometry" />
        </mxCell>
        <mxCell id="S61VdMvBfNB-LoWoOVVo-19" value="" style="endArrow=classic;html=1;rounded=0;" edge="1" parent="1">
          <mxGeometry width="50" height="50" relative="1" as="geometry">
            <mxPoint x="100" y="354" as="sourcePoint" />
            <mxPoint x="340" y="354" as="targetPoint" />
            <Array as="points">
              <mxPoint x="189" y="354" />
            </Array>
          </mxGeometry>
        </mxCell>
        <mxCell id="S61VdMvBfNB-LoWoOVVo-20" value="5. Request" style="text;html=1;align=center;verticalAlign=middle;resizable=0;points=[];autosize=1;strokeColor=none;fillColor=none;fontStyle=1" vertex="1" parent="1">
          <mxGeometry x="182" y="324" width="80" height="30" as="geometry" />
        </mxCell>
        <mxCell id="S61VdMvBfNB-LoWoOVVo-21" value="" style="endArrow=none;html=1;rounded=0;endFill=0;startArrow=classic;startFill=1;" edge="1" parent="1">
          <mxGeometry width="50" height="50" relative="1" as="geometry">
            <mxPoint x="102" y="394" as="sourcePoint" />
            <mxPoint x="340" y="394" as="targetPoint" />
            <Array as="points">
              <mxPoint x="183" y="394" />
            </Array>
          </mxGeometry>
        </mxCell>
        <mxCell id="S61VdMvBfNB-LoWoOVVo-22" value="6. Response" style="text;html=1;align=center;verticalAlign=middle;resizable=0;points=[];autosize=1;strokeColor=none;fillColor=none;fontStyle=1" vertex="1" parent="1">
          <mxGeometry x="177" y="364" width="90" height="30" as="geometry" />
        </mxCell>
        <mxCell id="S61VdMvBfNB-LoWoOVVo-23" value="" style="shape=actor;whiteSpace=wrap;html=1;" vertex="1" parent="1">
          <mxGeometry x="450" y="115" width="40" height="60" as="geometry" />
        </mxCell>
        <mxCell id="S61VdMvBfNB-LoWoOVVo-24" value="" style="line;strokeWidth=4;direction=south;html=1;perimeter=backbonePerimeter;points=[];outlineConnect=0;" vertex="1" parent="1">
          <mxGeometry x="465" y="185" width="10" height="230" as="geometry" />
        </mxCell>
        <mxCell id="S61VdMvBfNB-LoWoOVVo-25" value="" style="line;strokeWidth=4;direction=south;html=1;perimeter=backbonePerimeter;points=[];outlineConnect=0;" vertex="1" parent="1">
          <mxGeometry x="705" y="185" width="10" height="230" as="geometry" />
        </mxCell>
        <mxCell id="S61VdMvBfNB-LoWoOVVo-26" value="" style="shape=image;verticalLabelPosition=bottom;labelBackgroundColor=default;verticalAlign=top;aspect=fixed;imageAspect=0;image=https://static.vecteezy.com/system/resources/previews/021/351/649/original/web-server-icon-for-your-website-mobile-presentation-and-logo-design-free-vector.jpg;" vertex="1" parent="1">
          <mxGeometry x="675" y="110" width="70" height="70" as="geometry" />
        </mxCell>
        <mxCell id="S61VdMvBfNB-LoWoOVVo-27" value="Socket IO" style="text;strokeColor=none;fillColor=none;html=1;fontSize=24;fontStyle=1;verticalAlign=middle;align=center;" vertex="1" parent="1">
          <mxGeometry x="540" y="125" width="100" height="40" as="geometry" />
        </mxCell>
        <mxCell id="S61VdMvBfNB-LoWoOVVo-28" value="" style="endArrow=classic;html=1;rounded=0;" edge="1" source="S61VdMvBfNB-LoWoOVVo-24" target="S61VdMvBfNB-LoWoOVVo-25" parent="1">
          <mxGeometry width="50" height="50" relative="1" as="geometry">
            <mxPoint x="520" y="245" as="sourcePoint" />
            <mxPoint x="570" y="195" as="targetPoint" />
            <Array as="points">
              <mxPoint x="560" y="205" />
            </Array>
          </mxGeometry>
        </mxCell>
        <mxCell id="S61VdMvBfNB-LoWoOVVo-29" value="1. Establish connection" style="text;html=1;align=center;verticalAlign=middle;resizable=0;points=[];autosize=1;strokeColor=none;fillColor=none;fontStyle=1" vertex="1" parent="1">
          <mxGeometry x="515" y="175" width="150" height="30" as="geometry" />
        </mxCell>
        <mxCell id="S61VdMvBfNB-LoWoOVVo-30" value="" style="endArrow=none;html=1;rounded=0;endFill=0;startArrow=classic;startFill=1;" edge="1" target="S61VdMvBfNB-LoWoOVVo-25" parent="1">
          <mxGeometry width="50" height="50" relative="1" as="geometry">
            <mxPoint x="470" y="245" as="sourcePoint" />
            <mxPoint x="705" y="245" as="targetPoint" />
            <Array as="points">
              <mxPoint x="554" y="245" />
            </Array>
          </mxGeometry>
        </mxCell>
        <mxCell id="S61VdMvBfNB-LoWoOVVo-31" value="2. Message" style="text;html=1;align=center;verticalAlign=middle;resizable=0;points=[];autosize=1;strokeColor=none;fillColor=none;fontStyle=1" vertex="1" parent="1">
          <mxGeometry x="545" y="215" width="90" height="30" as="geometry" />
        </mxCell>
        <mxCell id="S61VdMvBfNB-LoWoOVVo-34" value="" style="endArrow=none;html=1;rounded=0;endFill=0;startArrow=classic;startFill=1;" edge="1" target="S61VdMvBfNB-LoWoOVVo-25" parent="1">
          <mxGeometry width="50" height="50" relative="1" as="geometry">
            <mxPoint x="470" y="290" as="sourcePoint" />
            <mxPoint x="705" y="290" as="targetPoint" />
            <Array as="points">
              <mxPoint x="548" y="290" />
            </Array>
          </mxGeometry>
        </mxCell>
        <mxCell id="S61VdMvBfNB-LoWoOVVo-38" value="" style="endArrow=none;html=1;rounded=0;endFill=0;startArrow=classic;startFill=1;" edge="1" parent="1">
          <mxGeometry width="50" height="50" relative="1" as="geometry">
            <mxPoint x="471" y="338.5" as="sourcePoint" />
            <mxPoint x="709" y="338.5" as="targetPoint" />
            <Array as="points">
              <mxPoint x="552" y="338.5" />
            </Array>
          </mxGeometry>
        </mxCell>
        <mxCell id="S61VdMvBfNB-LoWoOVVo-39" value="4. Message" style="text;html=1;align=center;verticalAlign=middle;resizable=0;points=[];autosize=1;strokeColor=none;fillColor=none;fontStyle=1" vertex="1" parent="1">
          <mxGeometry x="545" y="310" width="90" height="30" as="geometry" />
        </mxCell>
        <mxCell id="S61VdMvBfNB-LoWoOVVo-40" value="3. Message" style="text;html=1;align=center;verticalAlign=middle;resizable=0;points=[];autosize=1;strokeColor=none;fillColor=none;fontStyle=1" vertex="1" parent="1">
          <mxGeometry x="547" y="260" width="90" height="30" as="geometry" />
        </mxCell>
      </root>
    </mxGraphModel>
  </diagram>
</mxfile>
